<svg width="20" height="20" viewBox="0 0 20 20" fill="none" xmlns="http://www.w3.org/2000/svg">
<path d="M3.69137 0.166197C2.11069 0.56764 1.1949 1.23253 0.630367 2.42432C0.00311239 3.72901 -0.0345229 4.19317 0.0156575 10.4657C0.0532928 16.0985 0.0658379 16.249 0.34183 16.9892C0.893815 18.4695 1.72179 19.2724 3.20211 19.7616C3.89209 19.9875 4.34372 20 10.0266 20C15.7096 20 16.1612 19.9875 16.8512 19.7616C18.3691 19.2598 19.2598 18.3691 19.7616 16.8512C19.9875 16.1612 20 15.7096 20 10.0266C20 4.34372 19.9875 3.89209 19.7616 3.20211C19.2724 1.72179 18.4695 0.893814 16.9892 0.341829C16.249 0.0532913 16.1236 0.0532913 10.2775 0.0282021C5.83658 0.0156574 4.15554 0.0407467 3.69137 0.166197ZM5.82404 7.16636C5.97458 9.03558 6.72729 10.6163 7.83125 11.3564C8.16997 11.5948 8.52124 11.783 8.60905 11.783C8.7345 11.783 8.77214 11.1557 8.77214 8.96031V6.13766H9.83847H10.9048V7.7058C10.9048 8.9854 10.9424 9.27394 11.0804 9.27394C11.946 9.27394 13.3511 7.91907 13.9031 6.53911L14.0662 6.13766H15.1952C16.2992 6.13766 16.3117 6.13766 16.2239 6.41366C15.7723 7.91907 15.2329 8.75959 14.1163 9.73811L13.5267 10.2525L14.0662 10.6288C14.7938 11.1432 15.6845 12.084 16.1361 12.8493C16.4874 13.4389 16.801 14.1916 16.801 14.43C16.801 14.4927 16.2365 14.5429 15.559 14.5429H14.3171L14.2293 14.1665C14.1414 13.7776 13.464 12.7866 12.9873 12.3726C12.6611 12.0966 11.8457 11.7202 11.3062 11.5948L10.9048 11.507V13.0375V14.568L10.0016 14.4802C6.02476 14.0913 3.79173 11.507 3.32756 6.79001L3.26484 6.13766H4.49426H5.73622L5.82404 7.16636Z" fill="#151515"/>
</svg>
