<svg width="20" height="21" viewBox="0 0 20 21" fill="none" xmlns="http://www.w3.org/2000/svg">
<path d="M6.04724 1.00039C3.54016 1.11692 2.3811 1.44133 1.47717 2.28228C0.737008 2.97204 0.327559 3.91692 0.144882 5.36574C0.00629921 6.44606 0 6.69487 0 11.0287C0 15.2713 0.00629921 15.5925 0.129134 16.572C0.333858 18.2382 0.828346 19.2555 1.76378 19.9516C2.55118 20.5374 3.53386 20.8114 5.37008 20.9563C6.10394 21.013 13.9465 21.0161 14.6772 20.9563C16.7055 20.7957 17.7071 20.4713 18.5228 19.7122C19.263 19.0224 19.6724 18.0776 19.8551 16.6287C19.9937 15.5484 20 15.2996 20 10.9657C20 6.72322 19.9937 6.40196 19.8709 5.42243C19.6661 3.75629 19.1717 2.73897 18.2362 2.04291C17.4583 1.46653 16.5417 1.20511 14.6929 1.04133C14.3339 1.00669 6.65827 0.975189 6.04724 1.00039ZM10.6772 5.19251C11.7575 5.42873 12.6803 6.31692 12.9638 7.39094C13.0583 7.74999 13.0803 8.34212 13.0079 8.71377C12.652 10.6067 10.6457 11.7027 8.86614 10.9752C7.22205 10.3012 6.49764 8.40826 7.27559 6.82086C7.89291 5.57361 9.31653 4.89015 10.6772 5.19251ZM12.885 11.3752C13.0583 11.4508 13.2661 11.6587 13.348 11.8445C13.4457 12.0618 13.4394 12.3799 13.3323 12.5878C13.285 12.6728 13.2031 12.7894 13.1433 12.8461C12.9134 13.0697 12.2142 13.4067 11.6126 13.5894L11.2598 13.6964L12.1323 14.5405C12.6142 15.0067 13.0457 15.4445 13.0929 15.5169C13.1402 15.5862 13.1937 15.7216 13.2126 15.8161C13.3512 16.5374 12.5732 17.1075 11.9118 16.7736C11.8551 16.7453 11.411 16.3232 10.9197 15.8382L10.0315 14.9531L9.14016 15.8382C8.14173 16.8366 8.11654 16.8555 7.73228 16.8555C7.2063 16.8555 6.84094 16.4996 6.8378 15.9894C6.83465 15.6114 6.86614 15.5705 7.86457 14.5657C8.4252 14.0051 8.73386 13.6713 8.70551 13.6618C8.10394 13.476 7.83622 13.3752 7.48346 13.1988C6.80315 12.8587 6.62992 12.6665 6.60472 12.2287C6.58583 11.9201 6.66772 11.7153 6.87244 11.5327C7.06142 11.3657 7.27244 11.2996 7.54646 11.3185C7.73228 11.3342 7.80157 11.3563 8.0378 11.4917C8.39055 11.6902 8.71811 11.8224 9.05512 11.9075C10.0441 12.1468 11.052 12.0051 11.9276 11.498C12.3181 11.2744 12.5732 11.2398 12.885 11.3752Z" fill="#151515"/>
<path d="M9.82711 6.94057C9.41451 6.99411 9.01136 7.30592 8.86333 7.68388C8.76569 7.92955 8.76254 8.35789 8.85703 8.59411C8.99876 8.95317 9.29482 9.23348 9.64758 9.34687C9.89325 9.42561 10.3058 9.39726 10.5358 9.28703C11.1657 8.98466 11.4303 8.2697 11.1405 7.64923C10.9011 7.13269 10.4066 6.86813 9.82711 6.94057Z" fill="#151515"/>
</svg>
