<svg width="20" height="20" viewBox="0 0 20 20" fill="none" xmlns="http://www.w3.org/2000/svg">
<path d="M8.86404 0.0548859C6.31018 0.348658 3.86208 1.68434 2.2483 3.67023C1.44532 4.65731 0.767691 5.93815 0.411248 7.14849C0.195816 7.87313 0.0117188 8.94637 0.0117188 9.49083V9.68668H0.43475C1.62159 9.68668 3.45864 9.55742 4.35562 9.41249C7.14058 8.96204 8.60552 7.70078 9.23615 5.22135C9.49075 4.21077 9.68268 2.16612 9.6866 0.430913V0.0117989L9.42416 0.0157166C9.27532 0.0196333 9.02463 0.0353012 8.86404 0.0548859Z" fill="#151515"/>
<path d="M10.3282 0.92053C10.3909 3.02785 10.5201 4.24602 10.7865 5.29185C11.2056 6.92914 12.0477 8.04939 13.3717 8.7231C14.5546 9.32631 16.1331 9.59267 19.0395 9.67101L19.9874 9.69843V9.43991C19.9874 9.2989 19.96 8.97379 19.9287 8.71919C19.5996 6.20842 18.3619 3.95617 16.4034 2.30322C15.4202 1.47674 13.9945 0.724682 12.7215 0.372156C12.0086 0.172392 11.0333 0.011797 10.5123 0.011797H10.3008L10.3282 0.92053Z" fill="#151515"/>
<path d="M0.0235017 10.7247C0.27027 14.7121 3.03172 18.2491 6.88992 19.5143C7.69682 19.7807 8.83273 19.9883 9.45944 19.9883H9.68663V19.5652C9.68663 18.9228 9.61221 17.4579 9.54954 16.7568C9.41244 15.284 9.18918 14.3439 8.76614 13.4665C8.03367 11.935 6.70583 11.0263 4.65726 10.6502C3.68977 10.4701 2.63611 10.38 0.916567 10.329L0 10.3016L0.0235017 10.7247Z" fill="#151515"/>
<path d="M18.2649 10.3565C14.9316 10.4936 13.306 10.9871 12.1153 12.217C10.9284 13.4469 10.4976 14.9706 10.3526 18.4215C10.3331 18.9268 10.3135 19.4908 10.3135 19.671V20L10.76 19.9765C11.5982 19.9256 12.6597 19.6984 13.5058 19.3811C15.9108 18.4802 17.9045 16.6549 19.0287 14.3282C19.5575 13.2276 19.9139 11.888 19.9766 10.7521L20.0001 10.3134L19.4948 10.3212C19.2167 10.3212 18.6644 10.3408 18.2649 10.3565Z" fill="#151515"/>
</svg>
