<svg width="20" height="20" viewBox="0 0 20 20" fill="none" xmlns="http://www.w3.org/2000/svg">
<path fill-rule="evenodd" clip-rule="evenodd" d="M5 0C2.23857 0 0 2.23857 0 5V15C0 17.7614 2.23857 20 5 20H15C17.7614 20 20 17.7614 20 15V5C20 2.23857 17.7614 0 15 0H5ZM13.68 7.775C13.6678 7.29833 13.6067 6.71167 13.4967 6.015C13.3867 5.30611 13.2217 4.79277 13.0017 4.475C12.7817 4.15722 12.4517 3.87611 12.0117 3.63167C11.5839 3.375 11.0522 3.24667 10.4167 3.24667L6.93333 3.43V16.6667L10.4167 16.795C11.0767 16.795 11.6633 16.6544 12.1767 16.3733C12.3844 16.2633 12.5677 16.0922 12.7267 15.86C12.8977 15.6156 13.0383 15.3956 13.1483 15.2C13.2583 15.0044 13.35 14.7233 13.4233 14.3567C13.4967 13.9777 13.5639 13.5867 13.625 13.1833C13.6861 12.7677 13.7167 12.1077 13.7167 11.2033V9.62667C13.7167 8.85667 13.7044 8.23944 13.68 7.775ZM11.315 14.7417C11.1194 15.0227 10.82 15.1633 10.4167 15.1633H8.51L8.675 14.705V5.33667L8.52833 4.87833H10.4167C10.82 4.87833 11.1194 5.01889 11.315 5.3C11.425 5.44667 11.5167 5.59333 11.59 5.74C11.6756 5.87444 11.7367 6.08833 11.7733 6.38167C11.8223 6.66278 11.865 6.94389 11.9017 7.225C11.9506 7.49389 11.975 8.05611 11.975 8.91167V11.02C11.975 11.2522 11.9689 11.57 11.9567 11.9733C11.9444 12.3644 11.92 12.6639 11.8833 12.8717C11.8589 13.0794 11.8223 13.33 11.7733 13.6233C11.7367 13.9167 11.6756 14.1367 11.59 14.2833C11.5167 14.43 11.425 14.5828 11.315 14.7417Z" fill="#191C21"/>
</svg>
