<svg width="30" height="26" viewBox="0 0 30 26" fill="none" xmlns="http://www.w3.org/2000/svg">
<path d="M4.94507 0.101288C4.57009 0.2712 4.42361 0.523142 4.42361 0.997728C4.42361 1.41958 4.50564 1.59536 4.82789 1.82972C4.98608 1.9469 5.06811 1.95276 7.65197 1.97034L10.3179 1.98792L9.86085 2.31602C9.11088 2.8492 8.73004 3.17145 8.11484 3.79251L7.52893 4.38428H4.0955H0.662077L0.462868 4.51904C0.140618 4.73583 0 4.99363 0 5.38033C0 5.79632 0.158195 6.05998 0.527318 6.24161C0.785118 6.37637 0.802695 6.37637 3.43929 6.37637H6.09345L5.76534 7.03259C4.88062 8.79618 4.47048 10.4309 4.41189 12.4288C4.35916 14.0635 4.55251 15.4052 5.04468 16.8934C5.32005 17.7079 5.94698 19.0379 6.38055 19.6941C6.5446 19.946 6.67936 20.1628 6.67936 20.1745C6.67936 20.1921 6.01143 20.2038 5.19701 20.2038C3.55061 20.2038 3.44514 20.2273 3.18149 20.614C2.80064 21.1647 3.08188 21.9557 3.72052 22.1315C3.87286 22.1725 4.75758 22.1959 6.21649 22.1959C8.22616 22.1959 8.48982 22.2076 8.56013 22.2897C8.67731 22.4361 9.4097 23.0162 9.896 23.356L10.3296 23.6607H5.57199C0.955032 23.6607 0.808554 23.6665 0.591768 23.7779C0.263659 23.9419 0.0878863 24.2525 0.0878863 24.6684C0.0878863 24.9497 0.117182 25.0317 0.269518 25.2251C0.6445 25.6938 -0.228504 25.6586 9.6675 25.6352C19.3291 25.6176 18.8253 25.6352 20.2783 25.2719C25.3464 23.9947 29.1255 19.8347 29.8814 14.7021C30.0395 13.6123 30.0395 12.0304 29.8814 10.9406C29.1255 5.80804 25.3464 1.64809 20.2783 0.370806C18.8604 0.0192604 19.0889 0.0251198 11.8354 0.00754166C5.42552 -0.0100365 5.17943 -0.00417709 4.94507 0.101288ZM18.7784 2.13439C21.1044 2.48008 23.161 3.523 24.8425 5.20456C29.0669 9.42896 29.0669 16.2138 24.8425 20.4382C23.4364 21.8444 21.6903 22.8463 19.833 23.3033C18.1163 23.7251 16.259 23.7251 14.5598 23.3033C10.7339 22.3482 7.66955 19.2605 6.71452 15.4111C6.48015 14.4678 6.4157 13.9053 6.4157 12.8214C6.4157 11.7374 6.48015 11.175 6.71452 10.2317C7.74572 6.06584 11.2026 2.86678 15.4387 2.15197C16.4758 1.9762 17.6827 1.97034 18.7784 2.13439Z" fill="#CD2425"/>
<path d="M16.492 4.88824C15.4608 5.01128 14.7108 5.21049 13.9198 5.5679C11.9277 6.48191 10.3692 8.18691 9.67785 10.2142C9.39076 11.052 9.30873 11.5442 9.27358 12.5695C9.23842 13.6359 9.31459 14.2628 9.60754 15.1944C10.4688 17.9599 12.7246 20.0047 15.6014 20.6258C16.4041 20.7957 17.9392 20.8132 18.6891 20.6492C20.3355 20.2976 21.5249 19.6766 22.685 18.5692C24.1381 17.1806 24.9759 15.4287 25.1283 13.4367C25.4036 9.97979 23.3881 6.728 20.1832 5.44486C19.029 4.98199 17.5818 4.7652 16.492 4.88824ZM16.2283 8.2455V9.52278L15.8943 9.65168C15.4725 9.81574 14.9042 10.22 14.6112 10.5657L14.3768 10.8411L13.164 10.4544C12.4961 10.2376 11.9512 10.0501 11.9512 10.0325C11.9512 9.9212 12.5664 9.08921 12.9121 8.7318C13.6738 7.94083 14.5409 7.40765 15.5369 7.10884C16.3045 6.88619 16.2283 6.76315 16.2283 8.2455ZM19.1461 7.20258C20.3766 7.62444 21.4429 8.46229 22.187 9.58723C22.3276 9.80402 22.4389 9.99737 22.4389 10.0208C22.4389 10.0442 21.8999 10.2376 21.2437 10.4485L20.0484 10.8352L19.6207 10.4075C19.2868 10.0794 19.07 9.9212 18.7067 9.74543L18.2204 9.51106V8.23378V6.9565L18.4431 6.99751C18.5602 7.01509 18.8766 7.10884 19.1461 7.20258ZM17.781 11.5266C18.3024 11.761 18.6012 12.2355 18.6012 12.8214C18.6012 13.63 18.0153 14.2218 17.2068 14.2276C16.3924 14.2276 15.7947 13.6359 15.7947 12.8214C15.7947 12.2473 16.1229 11.7317 16.6385 11.509C16.9255 11.386 17.4939 11.3918 17.781 11.5266ZM12.6015 12.382L13.7499 12.7687L13.7851 13.132C13.8319 13.6183 14.0136 14.1866 14.2479 14.5792L14.4413 14.9014L13.7206 15.8975C13.3222 16.4424 12.9824 16.9052 12.9707 16.917C12.8886 16.999 12.2734 16.2139 11.9512 15.6162C11.4942 14.7667 11.2481 13.7823 11.2481 12.798C11.2481 12.2121 11.2832 12.0012 11.3887 12.0012C11.4239 12.0012 11.9688 12.1711 12.6015 12.382ZM23.1127 12.9093C23.1069 13.9874 22.9956 14.4796 22.5268 15.4287C22.2632 15.9678 21.6128 16.917 21.4839 16.9462C21.4663 16.9462 21.1148 16.4892 20.7047 15.9268L19.9606 14.9014L20.066 14.7257C20.4176 14.1397 20.6226 13.5128 20.6226 13.0324V12.7687L21.7827 12.3879C22.4155 12.1769 22.978 12.0129 23.0249 12.0188C23.101 12.0305 23.1127 12.1711 23.1127 12.9093ZM16.8142 16.2197C17.0544 16.2549 17.3591 16.249 17.6345 16.208C17.8747 16.1728 18.1384 16.1436 18.2145 16.1377C18.3317 16.1318 18.4723 16.2959 19.0817 17.122C19.4743 17.6728 19.8024 18.1298 19.8024 18.1474C19.8024 18.1942 19.2692 18.411 18.8942 18.5282C17.8982 18.827 16.7381 18.8563 15.7479 18.5927C15.285 18.4755 14.5819 18.1942 14.5995 18.1415C14.6112 18.1181 14.9452 17.6435 15.3436 17.0927C16.0584 16.1025 16.0701 16.0908 16.2518 16.1318C16.3514 16.1553 16.6033 16.1904 16.8142 16.2197Z" fill="#CD2425"/>
</svg>
