<svg width="30" height="19" viewBox="0 0 30 19" fill="none" xmlns="http://www.w3.org/2000/svg">
<path d="M13.8254 0.341413C11.2595 0.651899 8.71118 1.63608 6.61979 3.12407C5.20796 4.12583 3.87229 5.4615 2.87053 6.87333C1.04862 9.42752 0 12.6495 0 15.6607C0 16.6097 0.0644404 16.9202 0.36321 17.4884C0.574106 17.8927 1.15407 18.4609 1.55243 18.6659C2.24956 19.0174 1.88635 18.9999 8.92793 18.9999C14.2413 18.9999 15.5067 18.9823 16.116 18.912C19.3321 18.5371 22.3433 17.1779 24.7979 14.987C27.2173 12.837 28.9982 9.75558 29.6719 6.5687C29.9882 5.06314 30.0995 3.08892 29.9004 2.41522C29.6016 1.40761 28.8342 0.640182 27.8324 0.347273C27.5454 0.265257 26.8014 0.25354 20.9783 0.259399C16.0691 0.265257 14.2882 0.282831 13.8254 0.341413ZM19.9004 2.30978C20.7908 2.5031 21.7926 3.06549 22.4136 3.72161C23.8898 5.26818 24.2648 7.52945 23.3743 9.43923C22.1734 12.0051 19.1447 13.1065 16.5963 11.9114C14.7627 11.0561 13.6497 9.3045 13.6497 7.27755C13.6497 5.35605 14.6983 3.62788 16.3972 2.74914C17.5102 2.17504 18.635 2.03444 19.9004 2.30978ZM27.4458 2.25705C27.645 2.3625 27.8969 2.62026 27.9964 2.81358C28.0902 2.99519 28.0785 4.17269 27.973 4.98113C27.5688 8.03326 26.1863 10.8452 24.0129 13.0186C22.1089 14.9167 19.625 16.2699 17.0474 16.7972C15.577 17.0959 15.618 17.0959 9.02166 17.0959C5.62389 17.0959 2.77094 17.0784 2.68307 17.0491C2.47803 16.9963 2.13239 16.6917 2.01523 16.475C1.80433 16.0649 1.98008 13.9911 2.34329 12.5968C3.53251 8.00397 6.96543 4.33086 11.4528 2.86045C11.8746 2.71985 12.4897 2.54996 12.8295 2.47967C13.1693 2.41522 13.5032 2.34493 13.5794 2.32735C13.6848 2.30392 13.6379 2.38593 13.3333 2.74914C12.601 3.62202 12.0621 4.7468 11.8395 5.85986C11.6696 6.68001 11.6696 7.88681 11.8395 8.70696C12.3433 11.1791 14.1183 13.1768 16.526 13.9852C17.8383 14.4246 19.6426 14.4246 20.9666 13.9852C23.4095 13.1768 25.2489 11.0561 25.6883 8.54879C25.8172 7.78722 25.8055 6.59214 25.6532 5.85986C25.3954 4.58277 24.7568 3.35254 23.8488 2.40351L23.5793 2.12231L25.4247 2.13989C27.0123 2.15746 27.2935 2.16918 27.4458 2.25705Z" fill="#CD2425"/>
<path d="M17.7221 3.6455C16.7497 3.92669 15.8768 4.62968 15.4257 5.49669C15.1035 6.12352 14.998 6.55703 14.998 7.28345C14.998 8.00987 15.1035 8.44338 15.4257 9.07021C16.035 10.2477 17.312 11.0269 18.6301 11.0327C19.3448 11.0327 19.6846 10.7281 19.6846 10.0954C19.6846 9.492 19.3917 9.21667 18.6301 9.11122C18.0853 9.03506 17.7807 8.89446 17.4585 8.57226C17.0601 8.1739 16.9606 7.922 16.9606 7.28345C16.9606 6.77964 16.9781 6.69763 17.1304 6.41644C17.3238 6.06494 17.5757 5.82475 17.9447 5.63143C18.1498 5.52013 18.2845 5.49669 18.7473 5.49669C19.3859 5.49669 19.6378 5.59628 20.0361 5.99464C20.3583 6.31685 20.4989 6.62147 20.5751 7.16629C20.6512 7.69353 20.7684 7.93371 21.0437 8.1036C21.3074 8.26178 21.8112 8.26178 22.0748 8.1036C22.3911 7.91028 22.4966 7.67009 22.4966 7.14285C22.4966 6.56289 22.3735 6.08837 22.0689 5.49669C21.612 4.6121 20.6864 3.87982 19.7081 3.62792C19.216 3.49904 18.1908 3.51076 17.7221 3.6455Z" fill="#CD2425"/>
<path d="M6.73574 8.31429C5.97417 8.51347 5.13645 9.04657 4.62678 9.65583C4.33387 10.0132 3.95308 10.763 3.83592 11.2375C3.71876 11.6886 3.71876 12.7197 3.83592 13.1708C3.95308 13.6453 4.33387 14.3951 4.62678 14.7525C5.1423 15.3735 5.98003 15.9007 6.76503 16.0999C7.21611 16.217 8.24716 16.217 8.69825 16.0999C9.48325 15.9007 10.321 15.3735 10.8365 14.7525C11.1294 14.3951 11.5102 13.6453 11.6274 13.1708C11.7445 12.7197 11.7445 11.6886 11.6274 11.2375C11.4282 10.4525 10.9009 9.61482 10.28 9.0993C9.92261 8.80638 9.17276 8.4256 8.69825 8.30843C8.25888 8.19713 7.16925 8.19713 6.73574 8.31429ZM8.47563 10.2827C8.72168 10.3705 8.915 10.5053 9.17276 10.763C9.61213 11.2024 9.78202 11.6008 9.78202 12.2042C9.78202 12.8075 9.61213 13.2059 9.17276 13.6453C8.73339 14.0846 8.33503 14.2545 7.73164 14.2545C7.12824 14.2545 6.72988 14.0846 6.29052 13.6453C5.85115 13.2059 5.68126 12.8075 5.68126 12.2042C5.68126 11.6008 5.85115 11.2024 6.29052 10.763C6.73574 10.3178 7.10481 10.1596 7.71406 10.1596C8.01283 10.1538 8.2413 10.1889 8.47563 10.2827Z" fill="#CD2425"/>
</svg>
