<svg width="32" height="26" viewBox="0 0 32 26" fill="none" xmlns="http://www.w3.org/2000/svg">
<path d="M21.2082 1.08539C20.9521 1.20123 20.8972 1.39024 20.8546 2.28041C20.7448 4.75581 19.9278 6.8227 18.5011 8.25551C17.1049 9.65173 15.1721 10.4992 12.9284 10.7004C12.5565 10.7309 12.1846 10.7919 12.1053 10.8346C11.8188 10.9809 11.77 11.4138 12.0261 11.6638C12.1785 11.8223 12.2394 11.8345 12.8309 11.8711C15.3002 12.0113 17.6536 13.1453 19.0376 14.8647C20.1839 16.2914 20.7875 18.0839 20.9155 20.4801C20.9521 21.1873 20.9704 21.2788 21.0984 21.4068C21.2875 21.5958 21.6289 21.5958 21.8179 21.4068C21.9459 21.2788 21.9703 21.1873 22.0069 20.535C22.1715 17.6815 22.9215 15.7732 24.4762 14.2428C25.8237 12.9136 27.9576 12.0113 30.0672 11.8711C30.5611 11.8406 30.6769 11.8101 30.8232 11.6881C30.9574 11.5723 31 11.4869 31 11.3162C30.9939 10.9077 30.8049 10.7797 30.1099 10.7248C28.7502 10.6151 27.4333 10.2553 26.3541 9.7127C23.9214 8.4872 22.4703 6.29226 22.0679 3.23764C22.0191 2.84134 21.9764 2.2987 21.9764 2.03043C21.9764 1.42072 21.8789 1.16465 21.6106 1.06709C21.5009 1.03051 21.4094 1.00003 21.4033 1.00003C21.3972 1.00612 21.3118 1.04271 21.2082 1.08539ZM21.5496 5.76791C21.6716 6.18251 22.1167 7.10317 22.4337 7.59093C23.0678 8.57255 23.9092 9.43224 24.8603 10.0663C25.403 10.4261 26.4578 10.9565 26.9699 11.1272L27.3662 11.2613L26.9211 11.4321C24.9579 12.1881 23.5068 13.3161 22.4764 14.8891C22.1288 15.4195 21.6777 16.3402 21.5496 16.7731C21.4582 17.0779 21.3972 17.1023 21.3362 16.8706C21.2448 16.5048 20.7021 15.389 20.379 14.9013C19.8729 14.1453 19.4218 13.627 18.8121 13.1149C17.9524 12.3954 16.7574 11.7064 15.8123 11.3955C15.544 11.304 15.5075 11.2735 15.605 11.237C17.9036 10.3468 19.2693 9.31639 20.379 7.6458C20.7021 7.15804 21.2448 6.03619 21.3362 5.67646C21.3972 5.44477 21.4582 5.46916 21.5496 5.76791Z" fill="#CD2425" stroke="#CD2425" stroke-linejoin="round"/>
<path d="M6.39646 12.9943C6.24865 13.0612 6.21697 13.1703 6.19234 13.6841C6.12899 15.113 5.65738 16.3061 4.83384 17.1332C4.02789 17.9391 2.91223 18.4283 1.61709 18.5445C1.4024 18.5621 1.18772 18.5973 1.14196 18.6219C0.976551 18.7064 0.948396 18.9562 1.09621 19.1005C1.1842 19.192 1.21939 19.1991 1.56078 19.2202C2.98614 19.3011 4.34464 19.9558 5.14355 20.9482C5.8052 21.7718 6.15362 22.8065 6.22753 24.1896C6.24865 24.5979 6.25921 24.6507 6.33311 24.7246C6.44222 24.8337 6.6393 24.8337 6.74841 24.7246C6.82231 24.6507 6.83639 24.5979 6.85751 24.2213C6.95253 22.5742 7.38542 21.4726 8.28288 20.5892C9.06067 19.822 10.2925 19.3011 11.5102 19.2202C11.7953 19.2026 11.8621 19.185 11.9466 19.1146C12.024 19.0477 12.0487 18.9985 12.0487 18.8999C12.0451 18.6641 11.936 18.5902 11.5348 18.5585C10.75 18.4952 9.9898 18.2875 9.36686 17.9743C7.96261 17.2669 7.12498 15.9999 6.8927 14.2367C6.86455 14.0079 6.83991 13.6947 6.83991 13.5398C6.83991 13.1879 6.7836 13.0401 6.62875 12.9838C6.5654 12.9627 6.51261 12.9451 6.50909 12.9451C6.50557 12.9486 6.45629 12.9697 6.39646 12.9943ZM6.59355 15.6972C6.66394 15.9366 6.92086 16.468 7.10387 16.7496C7.46989 17.3162 7.95557 17.8124 8.5046 18.1784C8.81783 18.3861 9.42669 18.6923 9.72232 18.7908L9.95108 18.8682L9.69417 18.9668C8.56091 19.4032 7.72329 20.0543 7.1285 20.9623C6.9279 21.2685 6.66746 21.7999 6.59355 22.0498C6.54076 22.2258 6.50557 22.2399 6.47037 22.1061C6.41758 21.895 6.10435 21.2509 5.91782 20.9693C5.62571 20.5329 5.36527 20.2338 5.01333 19.9382C4.51709 19.5229 3.82728 19.1252 3.28177 18.9457C3.12692 18.8929 3.1058 18.8753 3.16211 18.8542C4.48894 18.3403 5.27729 17.7456 5.91782 16.7812C6.10435 16.4997 6.41758 15.8521 6.47037 15.6445C6.50557 15.5107 6.54076 15.5248 6.59355 15.6972Z" fill="#CD2425" stroke="#CD2425" stroke-linejoin="round"/>
</svg>
