<svg width="30" height="30" viewBox="0 0 30 30" fill="none" xmlns="http://www.w3.org/2000/svg">
<path d="M11.4983 0.0504704C10.9181 0.138378 10.379 0.448986 9.74017 1.08778C9.07793 1.74416 8.83765 2.08993 8.67356 2.62323C8.5329 3.06277 8.52118 3.71329 8.63839 4.10008C8.85523 4.80334 8.93142 4.89125 11.6683 7.63983L14.2996 10.2771L7.46629 17.1046C3.71556 20.8611 0.545027 24.0727 0.433678 24.2427C0.123071 24.7056 0 25.1217 0 25.7195C0 26.3173 0.123071 26.7334 0.433678 27.2022C0.714982 27.6242 2.26216 29.1303 2.58449 29.2944C3.38738 29.7047 4.27231 29.7164 5.06934 29.3237C5.45614 29.1362 5.87809 28.726 12.395 22.2091L19.3045 15.2937L20.6935 16.665C21.8831 17.8488 22.1293 18.0657 22.4516 18.2122C23.2838 18.599 24.2274 18.5697 25.0068 18.1243C25.1826 18.0247 26.0969 17.1573 27.4096 15.8504C29.4549 13.811 29.537 13.7172 29.748 13.2659C29.9472 12.8557 29.9765 12.7385 29.9941 12.2579C30.0117 11.918 29.9882 11.6015 29.9472 11.4316C29.7773 10.8104 29.6249 10.6111 28.1832 9.16357L26.7884 7.75704L27.2572 7.27062C27.9781 6.52634 28.2594 5.77619 28.1305 4.93228C28.0015 4.09422 27.8609 3.87152 26.7591 2.76975C25.6573 1.66797 25.4346 1.52732 24.5966 1.39839C23.7585 1.27532 23.0025 1.55076 22.2582 2.2716L21.7659 2.74044L20.4473 1.42183C19.4569 0.431404 19.0818 0.0914936 18.9294 0.0504704C18.6892 -0.0198555 11.9672 -0.0139942 11.4983 0.0504704ZM23.1549 6.71387C25.8566 9.41557 28.0894 11.6836 28.1246 11.7539C28.1598 11.8242 28.1891 12.0001 28.1891 12.1524C28.1891 12.422 28.1832 12.4279 27.3158 13.3421C25.628 15.1178 24.1336 16.5537 23.8874 16.6357C23.3776 16.7998 23.7526 17.1397 16.9427 10.3474C13.5202 6.92485 10.6368 4.01804 10.5431 3.89497C10.3497 3.6371 10.3204 3.31478 10.4552 3.05105C10.5899 2.79905 11.5042 1.92583 11.6976 1.87309C11.7913 1.84379 13.3034 1.81448 15.0615 1.81448L18.2555 1.80862L23.1549 6.71387ZM24.5848 3.26789C24.9248 3.42612 26.2199 4.76232 26.3137 5.04949C26.4192 5.37767 26.2844 5.68242 25.8449 6.1161L25.4932 6.46773L24.2801 5.24874L23.0611 4.03562L23.3834 3.70743C23.6882 3.39682 24.0691 3.15654 24.2625 3.15654C24.3094 3.15654 24.4559 3.20929 24.5848 3.26789ZM16.8197 12.7971L18.0211 13.9985L13.696 18.3235L9.37682 22.6427L8.16369 21.4238L6.94471 20.2106L11.2522 15.9032C13.6198 13.5355 15.5714 11.5957 15.589 11.5957C15.6065 11.5957 16.1574 12.1348 16.8197 12.7971ZM6.20042 25.825C4.14338 27.882 4.0965 27.9113 3.64524 27.7648C3.41082 27.6886 2.05118 26.4052 1.89881 26.118C1.79918 25.9305 1.79332 25.5261 1.88122 25.3503C1.91639 25.28 2.77788 24.3833 3.79761 23.3636L5.65539 21.4999L6.86852 22.7131L8.0875 23.9321L6.20042 25.825Z" fill="#CD2425"/>
</svg>
