<svg width="30" height="20" viewBox="0 0 30 20" fill="none" xmlns="http://www.w3.org/2000/svg">
<path d="M8.08008 0.0885429C4.64063 0.504559 1.94531 2.56706 0.703125 5.72526C0.205078 6.98503 0 8.13347 0 9.61003C0 11.4967 0.410156 13.155 1.24219 14.6198C2.63086 17.0632 4.78125 18.5456 7.73438 19.0846C8.22656 19.1725 8.85938 19.1842 13.0371 19.2077C15.6504 19.2194 17.8711 19.2077 17.9766 19.1901C18.2871 19.1315 18.5449 18.8561 18.7559 18.3522C19.4941 16.5885 20.1035 14.1393 20.3438 11.9831C20.4609 10.9167 20.4434 8.03971 20.3145 6.97331C20.0566 4.89323 19.582 2.97721 18.8672 1.14909C18.5977 0.463543 18.416 0.199871 18.123 0.0826836C17.8535 -0.0345039 9.01172 -0.0227852 8.08008 0.0885429ZM13.4648 2.82487C14.2148 5.09831 14.5488 7.19011 14.5488 9.61003C14.5488 12.03 14.2148 14.1217 13.4648 16.3893L13.166 17.2858H11.0273C8.71289 17.2858 8.12109 17.2331 7.16602 16.9577C4.79883 16.2721 3.05859 14.5671 2.29688 12.1882C1.99219 11.2331 1.91016 10.6823 1.91016 9.61003C1.91016 8.18034 2.16797 7.03776 2.75977 5.87761C3.84375 3.75065 5.71875 2.40886 8.14453 2.02214C8.49024 1.9694 9.32227 1.94596 10.9043 1.94011L13.166 1.93425L13.4648 2.82487ZM17.2852 2.44401C18.0762 4.61784 18.5156 7.19011 18.5156 9.61003C18.5156 12.03 18.0762 14.6022 17.2852 16.7702L17.0977 17.2858H16.166C15.6563 17.2858 15.2344 17.2624 15.2344 17.2389C15.2344 17.2096 15.3164 16.9577 15.4102 16.6647C15.8203 15.4694 16.1953 13.6764 16.3828 12.0417C16.5234 10.8346 16.5234 8.38542 16.3828 7.17839C16.1953 5.54362 15.8203 3.75065 15.4102 2.55534C15.3164 2.26237 15.2344 2.01042 15.2344 1.98112C15.2344 1.95768 15.6563 1.93425 16.166 1.93425H17.0977L17.2852 2.44401Z" fill="#CD2425"/>
<path d="M21.9141 0.106201C21.5977 0.264404 21.4453 0.539795 21.4453 0.96167C21.4453 1.41284 21.5859 1.66479 21.9316 1.81714C22.166 1.92261 22.3418 1.93433 25.0781 1.93433C27.8145 1.93433 27.9902 1.92261 28.2246 1.81714C28.5703 1.66479 28.7109 1.41284 28.7109 0.96167C28.7109 0.539795 28.5586 0.264404 28.2422 0.106201C28.0547 0.0124512 27.7793 0.000732422 25.0781 0.000732422C22.377 0.000732422 22.1016 0.0124512 21.9141 0.106201Z" fill="#CD2425"/>
<path d="M23.4082 5.79565C22.957 5.90698 22.7344 6.22339 22.7344 6.75073C22.7344 7.11987 22.875 7.3894 23.1562 7.55933C23.3438 7.67065 23.4609 7.67651 26.3672 7.67651C29.2734 7.67651 29.3906 7.67065 29.5781 7.55933C29.8594 7.3894 30 7.11987 30 6.75073C30 6.34644 29.8711 6.07104 29.5957 5.90698L29.3848 5.77222L26.4844 5.7605C24.8906 5.75464 23.502 5.77222 23.4082 5.79565Z" fill="#CD2425"/>
<path d="M23.1562 11.6609C22.875 11.8308 22.7344 12.1003 22.7344 12.4695C22.7344 12.8738 22.8633 13.1492 23.1387 13.3132L23.3496 13.448H26.3672H29.3848L29.5957 13.3132C29.8711 13.1492 30 12.8738 30 12.4695C30 12.1003 29.8594 11.8308 29.5781 11.6609C29.3906 11.5496 29.2734 11.5437 26.3672 11.5437C23.4609 11.5437 23.3438 11.5496 23.1562 11.6609Z" fill="#CD2425"/>
<path d="M21.9375 17.3972C21.5977 17.5496 21.4453 17.825 21.4453 18.2644C21.4453 18.6804 21.5977 18.9558 21.9141 19.114C22.1016 19.2078 22.377 19.2195 25.0781 19.2195C27.7793 19.2195 28.0547 19.2078 28.2422 19.114C28.5586 18.9558 28.7109 18.6804 28.7109 18.2644C28.7109 17.825 28.5586 17.5496 28.2188 17.3972C27.9961 17.2976 27.7793 17.2859 25.0781 17.2859C22.377 17.2859 22.1602 17.2976 21.9375 17.3972Z" fill="#CD2425"/>
</svg>
