<svg width="30" height="31" viewBox="0 0 30 31" fill="none" xmlns="http://www.w3.org/2000/svg">
<path d="M20.2031 0.0952225C17.4474 0.592149 15.0402 2.54113 14.0076 5.12257C13.5365 6.31003 13.3816 7.38133 13.6268 7.7879C13.8463 8.14285 14.1109 8.26547 14.6078 8.23965C15.0015 8.22029 15.066 8.19448 15.2725 7.99442C15.5048 7.76854 15.5242 7.72337 15.7565 6.74242C16.2599 4.59983 17.9895 2.84445 20.1966 2.23781C20.6096 2.12165 20.8678 2.09584 21.7584 2.09584C22.7264 2.09584 22.8748 2.1152 23.3911 2.27008C25.7273 2.98643 27.4053 4.85152 27.8183 7.18126C27.9215 7.74273 27.9022 8.83338 27.786 9.4013C27.3601 11.4729 25.766 13.3057 23.759 14.0285C22.6361 14.4286 23.3976 14.4028 11.4972 14.4416C1.15205 14.4803 0.60995 14.4867 0.442156 14.5964C0.151745 14.7836 0.00976562 15.0805 0.00976562 15.4806C0.00976562 15.9001 0.164652 16.1905 0.474424 16.3841C0.687393 16.5132 0.822918 16.5132 11.5681 16.5132C23.6235 16.5132 22.9329 16.539 24.2753 16.0872C27.2762 15.0869 29.4575 12.4538 29.9286 9.27868C30.0512 8.4139 30.019 7.53621 29.8189 6.56172C29.1477 3.24457 26.4953 0.676045 23.133 0.0887699C22.4489 -0.0338497 20.8742 -0.0273952 20.2031 0.0952225Z" fill="#CD2425"/>
<path d="M6.19248 2.96053C5.05664 3.16705 3.92727 3.84468 3.269 4.71591C2.55265 5.65813 2.2816 6.61972 2.60428 7.08438C2.86888 7.47159 3.06249 7.57485 3.5465 7.57485C4.15314 7.57485 4.33384 7.43287 4.68234 6.6778C5.10182 5.78721 5.61811 5.33545 6.46353 5.11603C7.58645 4.83208 8.78037 5.40644 9.31602 6.4971C9.51608 6.89722 9.52898 6.97467 9.52898 7.57485C9.52898 8.15567 9.50962 8.25893 9.34183 8.60743C9.08369 9.13017 8.57385 9.62709 8.03175 9.88524L7.59291 10.0918L4.1596 10.124C0.803729 10.1563 0.726286 10.1563 0.545585 10.2918C-0.0933201 10.7694 -0.0933201 11.6148 0.545585 12.0859C0.726286 12.2214 0.777915 12.2214 4.19186 12.2214C8.05111 12.2214 8.0253 12.2214 8.95461 11.7697C9.88393 11.3115 10.6325 10.5887 11.1101 9.65936C12.1298 7.71038 11.6264 5.35482 9.88393 3.90921C9.52253 3.60589 8.68356 3.18641 8.17373 3.05088C7.71552 2.93472 6.61841 2.88309 6.19248 2.96053Z" fill="#CD2425"/>
<path d="M0.473791 18.7074C-0.1393 19.0881 -0.165114 20.1014 0.441523 20.495C0.609317 20.6047 1.07398 20.6112 9.3023 20.6435C19.0472 20.6886 18.2341 20.6435 19.2666 21.1791C20.1831 21.6502 20.9381 22.5602 21.2608 23.5798C21.377 23.9412 21.4028 24.18 21.4028 24.806C21.3963 25.4772 21.377 25.645 21.2285 26.0516C20.7832 27.2907 19.912 28.1683 18.6729 28.633C18.0921 28.846 17.0143 28.9041 16.4013 28.7492C15.672 28.5685 15.0718 28.22 14.491 27.6456C13.9102 27.0648 13.5939 26.5356 13.3745 25.7483C13.1809 25.0448 12.8711 24.7738 12.271 24.7738C11.7289 24.7738 11.3739 25.0448 11.2319 25.5611C11.1029 26.0451 11.574 27.3939 12.1871 28.2974C13.1293 29.6785 14.6394 30.6401 16.298 30.9047C17.066 31.0337 18.3696 30.9563 19.0666 30.7498C21.235 30.1044 22.8355 28.42 23.384 26.1936C23.5906 25.3675 23.5776 24.0639 23.3518 23.2055C23.0549 22.0826 22.4741 21.1081 21.6222 20.2821C20.8542 19.5528 20.1185 19.1204 19.0666 18.7913L18.4987 18.6106L9.59271 18.5912C0.783564 18.5783 0.68676 18.5783 0.473791 18.7074Z" fill="#CD2425"/>
</svg>
